{
  "accessors": [
    {
      "bufferView": 1,
      "componentType": 5126,
      "count": 3071,
      "max": [
        10.140000343322754,
        5.880000114440918,
        13.895999908447266
      ],
      "min": [
        -9.229999542236328,
        -5.552000045776367,
        -0.06800000369548798
      ],
      "type": "VEC3"
    },
    {
      "bufferView": 1,
      "byteOffset": 36852,
      "componentType": 5126,
      "count": 3071,
      "max": [
        0.9995470643043518,
        0.9984272718429565,
        0.9998686909675598
      ],
      "min": [
        -0.9997760653495789,
        -0.9993273615837097,
        -0.9999593496322632
      ],
      "type": "VEC3"
    },
    {
      "bufferView": 0,
      "componentType": 5125,
      "count": 13062,
      "type": "SCALAR"
    }
  ],
  "asset": {
    "extras": {
      "author": "ThatOneGuyWhoDoesThings (https://sketchfab.com/thatoneguywhodoesthings)",
      "license": "CC-BY-SA-4.0 (http://creativecommons.org/licenses/by-sa/4.0/)",
      "source": "https://sketchfab.com/3d-models/ssbb-charizard-7b5d3e0905e242e69fecefe0771fe3ce",
      "title": "[SSBB] Charizard"
    },
    "generator": "Sketchfab-12.67.0",
    "version": "2.0"
  },
  "bufferViews": [
    {
      "buffer": 0,
      "byteLength": 52248,
      "name": "floatBufferViews",
      "target": 34963
    },
    {
      "buffer": 0,
      "byteLength": 73704,
      "byteOffset": 52248,
      "byteStride": 12,
      "name": "floatBufferViews",
      "target": 34962
    }
  ],
  "buffers": [
    {
      "byteLength": 125952,
      "uri": "scene.bin"
    }
  ],
  "materials": [
    {
      "doubleSided": true,
      "name": "material_0",
      "pbrMetallicRoughness": {
        "baseColorFactor": [
          0.5,
          0.5,
          0.5,
          1.0
        ],
        "metallicFactor": 0.0,
        "roughnessFactor": 0.6
      }
    }
  ],
  "meshes": [
    {
      "name": "Object_0",
      "primitives": [
        {
          "attributes": {
            "NORMAL": 1,
            "POSITION": 0
          },
          "indices": 2,
          "material": 0,
          "mode": 4
        }
      ]
    }
  ],
  "nodes": [
    {
      "children": [
        1
      ],
      "matrix": [
        1.0,
        0.0,
        0.0,
        0.0,
        0.0,
        2.220446049250313e-16,
        -1.0,
        0.0,
        0.0,
        1.0,
        2.220446049250313e-16,
        0.0,
        0.0,
        0.0,
        0.0,
        1.0
      ],
      "name": "Sketchfab_model"
    },
    {
      "children": [
        2
      ],
      "name": "181d5b4df60f4699845a320d98188ce4.obj.cleaner"
    },
    {
      "mesh": 0,
      "name": "Object_2"
    }
  ],
  "scene": 0,
  "scenes": [
    {
      "name": "Sketchfab_Scene",
      "nodes": [
        0
      ]
    }
  ]
}
