{
  "accessors": [
    {
      "bufferView": 1,
      "componentType": 5126,
      "count": 3578,
      "max": [
        5.973999977111816,
        3.5859999656677246,
        10.02400016784668
      ],
      "min": [
        -6.708000183105469,
        -6.035999774932861,
        -0.07000000029802322
      ],
      "type": "VEC3"
    },
    {
      "bufferView": 1,
      "byteOffset": 42936,
      "componentType": 5126,
      "count": 3578,
      "max": [
        1.0,
        0.9988693594932556,
        1.0
      ],
      "min": [
        -0.9999416470527649,
        -1.0,
        -1.0
      ],
      "type": "VEC3"
    },
    {
      "bufferView": 0,
      "componentType": 5125,
      "count": 15360,
      "type": "SCALAR"
    }
  ],
  "asset": {
    "extras": {
      "author": "ThatOneGuyWhoDoesThings (https://sketchfab.com/thatoneguywhodoesthings)",
      "license": "CC-BY-SA-4.0 (http://creativecommons.org/licenses/by-sa/4.0/)",
      "source": "https://sketchfab.com/3d-models/ssbb-squirtle-fd6ed89b957047ff96055967a4c79035",
      "title": "[SSBB] Squirtle"
    },
    "generator": "Sketchfab-12.67.0",
    "version": "2.0"
  },
  "bufferViews": [
    {
      "buffer": 0,
      "byteLength": 61440,
      "name": "floatBufferViews",
      "target": 34963
    },
    {
      "buffer": 0,
      "byteLength": 85872,
      "byteOffset": 61440,
      "byteStride": 12,
      "name": "floatBufferViews",
      "target": 34962
    }
  ],
  "buffers": [
    {
      "byteLength": 147312,
      "uri": "scene.bin"
    }
  ],
  "materials": [
    {
      "doubleSided": true,
      "name": "material_0",
      "pbrMetallicRoughness": {
        "baseColorFactor": [
          0.5,
          0.5,
          0.5,
          1.0
        ],
        "metallicFactor": 0.0,
        "roughnessFactor": 0.6
      }
    }
  ],
  "meshes": [
    {
      "name": "Object_0",
      "primitives": [
        {
          "attributes": {
            "NORMAL": 1,
            "POSITION": 0
          },
          "indices": 2,
          "material": 0,
          "mode": 4
        }
      ]
    }
  ],
  "nodes": [
    {
      "children": [
        1
      ],
      "matrix": [
        1.0,
        0.0,
        0.0,
        0.0,
        0.0,
        2.220446049250313e-16,
        -1.0,
        0.0,
        0.0,
        1.0,
        2.220446049250313e-16,
        0.0,
        0.0,
        0.0,
        0.0,
        1.0
      ],
      "name": "Sketchfab_model"
    },
    {
      "children": [
        2
      ],
      "name": "d53b7edbbee64528b5fc82a6e9029af8.obj.cleaner"
    },
    {
      "mesh": 0,
      "name": "Object_2"
    }
  ],
  "scene": 0,
  "scenes": [
    {
      "name": "Sketchfab_Scene",
      "nodes": [
        0
      ]
    }
  ]
}
